<svg width="1213" height="260" viewBox="0 58 1213 260" fill="none" xmlns="http://www.w3.org/2000/svg">
<path d="M90.0322 99.8379C138.174 99.8381 177.226 139.077 177.226 187.511C177.225 235.945 138.173 275.182 90.0322 275.183C41.8909 275.183 2.83815 235.945 2.83789 187.511C2.83789 139.077 41.8907 99.8379 90.0322 99.8379Z" stroke="white" stroke-width="5.6764"/>
<path d="M90.0195 131.419C118.978 131.419 142.619 156.624 142.619 187.927C142.619 219.23 118.978 244.433 90.0195 244.434C61.0611 244.434 37.419 219.23 37.4189 187.927C37.4189 156.624 61.0611 131.419 90.0195 131.419Z" stroke="white" stroke-width="2.8382"/>
<path d="M90.0283 110.698C132.203 110.698 166.419 145.074 166.419 187.509C166.419 229.945 132.203 264.32 90.0283 264.32C47.8539 264.32 13.6389 229.945 13.6387 187.509C13.6387 145.074 47.8538 110.698 90.0283 110.698Z" stroke="white" stroke-width="5.6764"/>
<path d="M90.0371 117.938C126.11 117.938 155.623 148.932 155.623 187.508C155.623 226.084 126.11 257.079 90.0371 257.079C53.9643 257.078 24.4512 226.084 24.4512 187.508C24.4512 148.932 53.9643 117.938 90.0371 117.938Z" stroke="white" stroke-width="5.6764"/>
<path d="M255.667 202.707L259.568 194.904H362.96L365.691 202.707H255.667ZM452.696 305.318C453.736 305.318 454.256 306.098 454.256 307.659C454.256 309.22 453.736 310 452.696 310C445.153 310 437.48 309.74 429.677 309.22C421.874 308.699 414.33 308.439 407.048 308.439C398.984 308.439 391.962 308.699 385.979 309.22C379.997 309.74 373.364 310 366.081 310C365.041 310 364.521 309.22 364.521 307.659C364.521 306.098 365.041 305.318 366.081 305.318C379.867 305.318 388.45 303.367 391.831 299.466C395.213 295.304 394.302 287.631 389.1 276.447L302.486 93.4632L312.24 81.3684L236.549 260.45C230.047 276.317 229.656 287.761 235.379 294.784C241.101 301.807 252.416 305.318 269.322 305.318C270.623 305.318 271.273 306.098 271.273 307.659C271.273 309.22 270.623 310 269.322 310C261.519 310 254.366 309.74 247.864 309.22C241.361 308.699 233.168 308.439 223.284 308.439C213.92 308.439 206.377 308.699 200.655 309.22C195.193 309.74 188.43 310 180.367 310C179.326 310 178.806 309.22 178.806 307.659C178.806 306.098 179.326 305.318 180.367 305.318C187.39 305.318 193.502 304.018 198.704 301.417C203.906 298.555 208.718 293.743 213.14 286.981C217.822 279.958 222.894 269.944 228.356 256.939L310.679 62.6409C311.199 61.8606 312.11 61.4704 313.41 61.4704C314.711 61.4704 315.491 61.8606 315.751 62.6409L407.828 256.549C413.81 269.294 419.142 279.308 423.824 286.591C428.506 293.613 433.058 298.555 437.48 301.417C442.162 304.018 447.234 305.318 452.696 305.318ZM568.63 310C567.85 310 567.46 309.22 567.46 307.659C567.46 306.098 567.85 305.318 568.63 305.318C578.774 305.318 585.277 303.627 588.138 300.246C591.259 296.605 592.82 289.322 592.82 278.397V215.192C592.82 199.586 589.959 188.271 584.236 181.248C578.514 173.965 569.411 170.324 556.925 170.324C547.562 170.324 537.938 173.315 528.054 179.298C518.17 185.28 509.717 193.473 502.694 203.877L501.133 199.196C512.578 183.849 523.892 172.535 535.077 165.252C546.521 157.969 558.096 154.328 569.801 154.328C584.106 154.328 595.161 158.359 602.964 166.422C611.027 174.226 615.059 186.06 615.059 201.927V278.397C615.059 289.322 616.489 296.605 619.351 300.246C622.472 303.627 629.104 305.318 639.248 305.318C640.029 305.318 640.419 306.098 640.419 307.659C640.419 309.22 640.029 310 639.248 310C634.827 310 629.495 309.87 623.252 309.61C617.27 309.35 610.897 309.22 604.134 309.22C597.372 309.22 590.869 309.35 584.627 309.61C578.384 309.87 573.052 310 568.63 310ZM463.678 310C462.898 310 462.508 309.22 462.508 307.659C462.508 306.098 462.898 305.318 463.678 305.318C473.822 305.318 480.325 303.627 483.186 300.246C486.307 296.605 487.868 289.322 487.868 278.397V201.146C487.868 192.563 486.827 186.32 484.747 182.419C482.926 178.257 479.414 176.176 474.212 176.176C471.611 176.176 468.49 176.697 464.849 177.737C461.467 178.777 457.566 180.208 453.144 182.029C452.103 182.289 451.193 181.769 450.413 180.468C449.893 179.168 450.153 178.257 451.193 177.737L496.451 156.278C497.232 156.018 498.012 155.888 498.792 155.888C500.613 155.888 502.954 158.619 505.815 164.082C508.676 169.544 510.107 177.477 510.107 187.881V278.397C510.107 289.322 511.537 296.605 514.398 300.246C517.52 303.627 524.152 305.318 534.296 305.318C535.077 305.318 535.467 306.098 535.467 307.659C535.467 309.22 535.077 310 534.296 310C529.875 310 524.543 309.87 518.3 309.61C512.318 309.35 505.945 309.22 499.182 309.22C492.42 309.22 485.917 309.35 479.675 309.61C473.432 309.87 468.1 310 463.678 310ZM713.223 314.682C706.98 314.682 700.998 313.641 695.276 311.561C689.553 309.74 684.871 306.489 681.23 301.807C677.588 297.125 675.768 290.752 675.768 282.689V191.002C675.768 184.76 675.378 180.078 674.597 176.957C673.817 173.835 671.996 171.885 669.135 171.104C666.274 170.064 661.852 169.544 655.87 169.544C654.829 169.544 654.309 168.763 654.309 167.203C654.309 165.382 654.829 164.472 655.87 164.472C666.274 164.212 674.727 161.35 681.23 155.888C687.993 150.426 691.764 143.403 692.544 134.82C692.544 134.039 693.455 133.649 695.276 133.649C697.356 133.649 698.397 134.039 698.397 134.82V269.424C698.397 280.088 700.998 288.021 706.2 293.223C711.662 298.425 719.335 301.026 729.219 301.026C735.982 301.026 741.964 299.986 747.166 297.905C752.629 295.564 757.05 292.963 760.432 290.102C761.472 289.582 762.382 289.972 763.163 291.272C764.203 292.313 764.203 293.223 763.163 294.004C753.539 301.287 744.825 306.619 737.022 310C729.479 313.121 721.546 314.682 713.223 314.682ZM751.068 178.517C740.924 175.916 731.17 174.226 721.806 173.445C712.442 172.665 702.428 172.275 691.764 172.275V163.691C702.168 163.691 712.182 163.301 721.806 162.521C731.43 161.741 741.704 160.83 752.629 159.79C753.149 159.79 753.669 160.7 754.189 162.521C754.969 164.342 755.36 166.553 755.36 169.154C755.36 170.974 754.839 173.055 753.799 175.396C753.019 177.737 752.108 178.777 751.068 178.517ZM886.409 312.341C885.369 312.861 884.329 313.121 883.288 313.121C879.907 313.121 876.656 310.39 873.534 304.928C870.413 299.206 868.852 291.012 868.852 280.348V206.609C868.852 190.482 866.512 179.168 861.83 172.665C857.408 166.162 851.556 162.911 844.273 162.911C837.77 162.911 832.438 164.602 828.276 167.983C824.115 171.104 820.993 174.876 818.912 179.298C817.092 183.719 815.791 187.881 815.011 191.783C814.231 195.424 812.93 199.066 811.109 202.707C809.289 206.088 805.647 207.779 800.185 207.779C795.763 207.779 792.512 206.609 790.431 204.268C788.35 201.667 787.31 198.935 787.31 196.074C787.31 191.132 789.651 186.32 794.333 181.639C799.275 176.957 805.387 172.665 812.67 168.763C820.213 164.602 828.016 161.35 836.079 159.009C844.403 156.669 851.816 155.498 858.318 155.498C868.983 155.498 877.046 159.009 882.508 166.032C887.97 172.795 890.701 182.419 890.701 194.904V267.863C890.701 276.967 891.872 283.599 894.213 287.761C896.554 291.923 900.325 294.004 905.527 294.004C910.209 294.004 916.712 292.313 925.035 288.932C926.335 288.411 927.246 288.932 927.766 290.492C928.286 291.793 927.896 292.703 926.596 293.223L886.409 312.341ZM816.181 312.731C806.297 312.731 798.754 310.13 793.552 304.928C788.35 299.466 785.749 293.093 785.749 285.81C785.749 280.608 787.05 275.926 789.651 271.765C792.512 267.343 796.934 263.311 802.916 259.67C808.898 256.028 816.571 252.517 825.935 249.136L872.754 231.579L873.924 236.651L832.568 252.647C827.886 254.468 823.984 256.549 820.863 258.89C817.742 261.23 815.401 263.831 813.84 266.693C812.54 269.554 811.89 272.675 811.89 276.056C811.89 282.039 813.84 287.241 817.742 291.663C821.644 296.084 826.976 298.295 833.738 298.295C836.339 298.295 839.071 297.905 841.932 297.125C844.793 296.345 848.304 294.654 852.466 292.053L877.046 277.227L877.826 282.299L848.954 301.026C842.712 305.188 836.99 308.179 831.788 310C826.846 311.821 821.644 312.731 816.181 312.731ZM975.344 204.268L973.783 199.976C983.407 188.271 991.34 179.298 997.583 173.055C1003.83 166.553 1009.16 162.131 1013.58 159.79C1018.26 157.189 1022.68 155.888 1026.84 155.888C1032.31 155.888 1037.64 157.449 1042.84 160.57C1048.3 163.691 1051.03 167.463 1051.03 171.885C1051.03 175.266 1049.86 178.127 1047.52 180.468C1045.44 182.809 1042.32 183.979 1038.16 183.979C1034.78 183.979 1031.92 182.939 1029.58 180.858C1027.23 178.777 1024.76 176.827 1022.16 175.006C1019.56 173.185 1016.18 172.275 1012.02 172.275C1009.68 172.275 1007.21 172.925 1004.61 174.226C1002 175.526 998.493 178.517 994.071 183.199C989.65 187.621 983.407 194.644 975.344 204.268ZM937.108 310C936.328 310 935.938 309.22 935.938 307.659C935.938 306.098 936.328 305.318 937.108 305.318C947.253 305.318 953.755 303.627 956.616 300.246C959.738 296.605 961.298 289.322 961.298 278.397V201.146C961.298 192.563 960.258 186.32 958.177 182.419C956.356 178.257 952.845 176.176 947.643 176.176C945.042 176.176 941.92 176.697 938.279 177.737C934.898 178.777 930.996 180.208 926.574 182.029C925.534 182.289 924.623 181.769 923.843 180.468C923.323 179.168 923.583 178.257 924.623 177.737L969.882 156.278C970.662 156.018 971.442 155.888 972.223 155.888C974.043 155.888 976.384 158.619 979.245 164.082C982.107 169.544 983.537 177.477 983.537 187.881V278.397C983.537 285.68 984.447 291.403 986.268 295.564C988.089 299.466 991.73 302.067 997.193 303.367C1002.65 304.668 1010.72 305.318 1021.38 305.318C1022.42 305.318 1022.94 306.098 1022.94 307.659C1022.94 309.22 1022.42 310 1021.38 310C1015.14 310 1007.73 309.87 999.143 309.61C990.82 309.35 981.976 309.22 972.613 309.22C965.85 309.22 959.347 309.35 953.105 309.61C946.862 309.87 941.53 310 937.108 310ZM1169.9 312.341C1168.86 312.861 1167.82 313.121 1166.78 313.121C1163.4 313.121 1160.14 310.39 1157.02 304.928C1153.9 299.206 1152.34 291.012 1152.34 280.348V206.609C1152.34 190.482 1150 179.168 1145.32 172.665C1140.9 166.162 1135.04 162.911 1127.76 162.911C1121.26 162.911 1115.93 164.602 1111.76 167.983C1107.6 171.104 1104.48 174.876 1102.4 179.298C1100.58 183.719 1099.28 187.881 1098.5 191.783C1097.72 195.424 1096.42 199.066 1094.6 202.707C1092.78 206.088 1089.14 207.779 1083.67 207.779C1079.25 207.779 1076 206.609 1073.92 204.268C1071.84 201.667 1070.8 198.935 1070.8 196.074C1070.8 191.132 1073.14 186.32 1077.82 181.639C1082.76 176.957 1088.88 172.665 1096.16 168.763C1103.7 164.602 1111.5 161.35 1119.57 159.009C1127.89 156.669 1135.3 155.498 1141.81 155.498C1152.47 155.498 1160.53 159.009 1166 166.032C1171.46 172.795 1174.19 182.419 1174.19 194.904V267.863C1174.19 276.967 1175.36 283.599 1177.7 287.761C1180.04 291.923 1183.81 294.004 1189.02 294.004C1193.7 294.004 1200.2 292.313 1208.52 288.932C1209.82 288.411 1210.73 288.932 1211.25 290.492C1211.77 291.793 1211.38 292.703 1210.08 293.223L1169.9 312.341ZM1099.67 312.731C1089.79 312.731 1082.24 310.13 1077.04 304.928C1071.84 299.466 1069.24 293.093 1069.24 285.81C1069.24 280.608 1070.54 275.926 1073.14 271.765C1076 267.343 1080.42 263.311 1086.4 259.67C1092.39 256.028 1100.06 252.517 1109.42 249.136L1156.24 231.579L1157.41 236.651L1116.06 252.647C1111.37 254.468 1107.47 256.549 1104.35 258.89C1101.23 261.23 1098.89 263.831 1097.33 266.693C1096.03 269.554 1095.38 272.675 1095.38 276.056C1095.38 282.039 1097.33 287.241 1101.23 291.663C1105.13 296.084 1110.46 298.295 1117.23 298.295C1119.83 298.295 1122.56 297.905 1125.42 297.125C1128.28 296.345 1131.79 294.654 1135.95 292.053L1160.53 277.227L1161.31 282.299L1132.44 301.026C1126.2 305.188 1120.48 308.179 1115.28 310C1110.33 311.821 1105.13 312.731 1099.67 312.731Z" fill="white"/>
</svg>
